# xmcd CD database file
#
# Track frame offsets:
#	150
#	4405
#	19920
#	35947
#	52117
#	66777
#	84212
#	102015
#	122287
#	138742
#	152280
#	170715
#	188070
#	199875
#
# Disc length: 2867 seconds
#
# Revision: 8
# Processed by: cddbd v1.5.2PL0 Copyright (c) Steve Scherf et al.
# Submitted via: CDex 1.51
#
DISCID=bb0b310e
DTITLE=Martina McBride - Evolution
DYEAR=1997
DGENRE=Country
TTITLE0=I'm Little But I'm Loud
TTITLE1=Happy Girl
TTITLE2=Be That Way
TTITLE3=A Broken Wing
TTITLE4=Wrong Again
TTITLE5=Keeping My Distance
TTITLE6=Still Holding On
TTITLE7=Whatever You Say
TTITLE8=I Won't Close My Eyes
TTITLE9=I Don't Want To See You Again
TTITLE10=Some Say I'm Running
TTITLE11=Here In My Heart
TTITLE12=One Day You Will
TTITLE13=Valentine
EXTD=0\n\n\n YEAR: 1997
EXTT0=
EXTT1=
EXTT2=
EXTT3=
EXTT4=
EXTT5=
EXTT6=
EXTT7=
EXTT8=
EXTT9=
EXTT10=
EXTT11=
EXTT12=
EXTT13=
PLAYORDER=
